<?xml version="1.0" standalone="no"?>
<svg xmlns="http://www.w3.org/2000/svg" viewBox="0 0 186.1 29" width="186.1" height="29"><path fill="#fff" fill-rule="nonzero" d="M17.98 0.86Q20.86 0.86 22.46 2.52Q24.07 4.18 24.07 7.32L24.07 7.32L24.07 17.81L22.32 17.81L22.32 7.37Q22.32 4.92 21.08 3.68Q19.85 2.45 17.71 2.45L17.71 2.45Q15.46 2.45 14.18 3.76Q12.91 5.06 12.91 7.75L12.91 7.75L12.91 17.81L11.16 17.81L11.16 7.37Q11.16 4.92 9.96 3.68Q8.76 2.45 6.62 2.45L6.62 2.45Q4.34 2.45 3.06 3.76Q1.78 5.06 1.78 7.75L1.78 7.75L1.78 17.81L0 17.81L0 1.01L1.70 1.01L1.70 3.82Q2.40 2.38 3.77 1.62Q5.14 0.86 7.01 0.86L7.01 0.86Q8.98 0.86 10.38 1.69Q11.78 2.52 12.41 4.01L12.41 4.01Q13.13 2.47 14.58 1.67Q16.03 0.86 17.98 0.86L17.98 0.86ZM38.74 5.18L40.44 5.18L40.44 16.27Q40.44 19.49 38.98 21.04Q37.51 22.58 34.56 22.58L34.56 22.58Q32.90 22.58 31.43 22.07Q29.95 21.55 29.04 20.64L29.04 20.64L29.90 19.34Q30.72 20.16 31.92 20.62Q33.12 21.07 34.49 21.07L34.49 21.07Q36.67 21.07 37.70 19.96Q38.74 18.84 38.74 16.49L38.74 16.49L38.74 15.02Q38.06 16.13 36.90 16.73Q35.74 17.33 34.27 17.33L34.27 17.33Q31.80 17.33 30.37 15.95Q28.94 14.57 28.94 11.90L28.94 11.90L28.94 5.18L30.65 5.18L30.65 11.74Q30.65 13.73 31.63 14.76Q32.62 15.79 34.44 15.79L34.44 15.79Q36.43 15.79 37.58 14.58Q38.74 13.37 38.74 11.21L38.74 11.21L38.74 5.18ZM56.83 2.71L56.18 4.10Q53.71 2.66 50.71 2.45L50.71 2.45L50.71 17.81L48.94 17.81L48.94 2.45Q45.98 2.64 43.44 4.10L43.44 4.10L42.79 2.71Q45.91 0.86 49.80 0.86L49.80 0.86Q53.76 0.86 56.83 2.71L56.83 2.71ZM58.92 17.81L58.92 5.18L60.62 5.18L60.62 17.81L58.92 17.81ZM59.78 2.42Q59.26 2.42 58.90 2.06Q58.54 1.70 58.54 1.20L58.54 1.20Q58.54 0.72 58.90 0.36Q59.26 0 59.78 0L59.78 0Q60.31 0 60.67 0.35Q61.03 0.70 61.03 1.18L61.03 1.18Q61.03 1.70 60.67 2.06Q60.31 2.42 59.78 2.42L59.78 2.42ZM71.81 5.09Q74.18 5.09 75.59 6.47Q76.99 7.85 76.99 10.49L76.99 10.49L76.99 17.81L75.29 17.81L75.29 10.66Q75.29 8.69 74.30 7.66Q73.32 6.62 71.50 6.62L71.50 6.62Q69.46 6.62 68.27 7.84Q67.08 9.05 67.08 11.18L67.08 11.18L67.08 17.81L65.38 17.81L65.38 5.18L67.01 5.18L67.01 7.51Q67.70 6.36 68.94 5.72Q70.18 5.09 71.81 5.09L71.81 5.09ZM87.07 16.42Q88.25 16.42 89.24 16.00Q90.24 15.58 90.94 14.76L90.94 14.76L91.90 15.86Q91.06 16.87 89.81 17.40Q88.56 17.93 87.05 17.93L87.05 17.93Q85.10 17.93 83.59 17.10Q82.08 16.27 81.24 14.81Q80.40 13.34 80.40 11.50L80.40 11.50Q80.40 9.65 81.20 8.18Q82.01 6.72 83.42 5.90Q84.84 5.09 86.64 5.09L86.64 5.09Q88.32 5.09 89.68 5.86Q91.03 6.62 91.84 7.99Q92.64 9.36 92.69 11.11L92.69 11.11L82.32 13.13Q82.80 14.66 84.06 15.54Q85.32 16.42 87.07 16.42L87.07 16.42ZM86.64 6.55Q85.32 6.55 84.28 7.16Q83.23 7.78 82.64 8.87Q82.06 9.96 82.06 11.38L82.06 11.38Q82.06 11.74 82.08 11.90L82.08 11.90L90.98 10.18Q90.70 8.59 89.52 7.57Q88.34 6.55 86.64 6.55L86.64 6.55ZM97.80 7.66Q98.40 6.38 99.59 5.74Q100.78 5.09 102.53 5.09L102.53 5.09L102.53 6.74L102.12 6.72Q100.13 6.72 99 7.94Q97.87 9.17 97.87 11.38L97.87 11.38L97.87 17.81L96.17 17.81L96.17 5.18L97.80 5.18L97.80 7.66ZM115.30 5.18L117 5.18L117 17.81L115.37 17.81L115.37 15.31Q114.60 16.58 113.34 17.26Q112.08 17.93 110.50 17.93L110.50 17.93Q108.72 17.93 107.28 17.11Q105.84 16.30 105.02 14.83Q104.21 13.37 104.21 11.50L104.21 11.50Q104.21 9.62 105.02 8.16Q105.84 6.70 107.28 5.89Q108.72 5.09 110.50 5.09L110.50 5.09Q112.03 5.09 113.27 5.72Q114.50 6.36 115.30 7.58L115.30 7.58L115.30 5.18ZM110.64 16.42Q111.96 16.42 113.03 15.80Q114.10 15.19 114.71 14.06Q115.32 12.94 115.32 11.50L115.32 11.50Q115.32 10.06 114.71 8.93Q114.10 7.80 113.03 7.19Q111.96 6.58 110.64 6.58L110.64 6.58Q109.30 6.58 108.23 7.19Q107.16 7.80 106.55 8.93Q105.94 10.06 105.94 11.50L105.94 11.50Q105.94 12.94 106.55 14.06Q107.16 15.19 108.23 15.80Q109.30 16.42 110.64 16.42L110.64 16.42ZM123.38 7.66Q123.98 6.38 125.17 5.74Q126.36 5.09 128.11 5.09L128.11 5.09L128.11 6.74L127.70 6.72Q125.71 6.72 124.58 7.94Q123.46 9.17 123.46 11.38L123.46 11.38L123.46 17.81L121.75 17.81L121.75 5.18L123.38 5.18L123.38 7.66ZM141.05 5.18L142.75 5.18L142.75 16.27Q142.75 19.49 141.29 21.04Q139.82 22.58 136.87 22.58L136.87 22.58Q135.22 22.58 133.74 22.07Q132.26 21.55 131.35 20.64L131.35 20.64L132.22 19.34Q133.03 20.16 134.23 20.62Q135.43 21.07 136.80 21.07L136.80 21.07Q138.98 21.07 140.02 19.96Q141.05 18.84 141.05 16.49L141.05 16.49L141.05 15.02Q140.38 16.13 139.21 16.73Q138.05 17.33 136.58 17.33L136.58 17.33Q134.11 17.33 132.68 15.95Q131.26 14.57 131.26 11.90L131.26 11.90L131.26 5.18L132.96 5.18L132.96 11.74Q132.96 13.73 133.94 14.76Q134.93 15.79 136.75 15.79L136.75 15.79Q138.74 15.79 139.90 14.58Q141.05 13.37 141.05 11.21L141.05 11.21L141.05 5.18Z" transform="translate(0, 3.208)"></path><line x1="151.752" y1="2%" x2="151.752" y2="98%" stroke="#fff" stroke-linecap="round"></line><g fill="#a62424" color="#a62424" transform="translate(160.752 0) scale(0.5272728)"><svg width="48.0" height="55.0" x="0.0" y="0.0" viewBox="0 0 48 55"><path fill="currentColor" fill-rule="evenodd" d="M29.875 44.156c-.59-.444-1.02-1.036-1.207-1.708-.409 1.46-1.96 2.547-3.813 2.547-1.956 0-3.577-1.212-3.87-2.796-.228 1.228-1.253 2.232-2.614 2.621l-2.38-3.157-1.513-2.007a5.158 5.158 0 0 0 1.48-.707c.288-.2.548-.428.775-.677.227.249.487.476.774.677.865.604 1.954.937 3.065.937 1.15 0 2.267-.353 3.147-.995.268-.196.51-.415.723-.653.213.238.455.457.723.653.88.642 1.998.995 3.147.995 1.52 0 2.903-.604 3.813-1.582.415.447.93.814 1.51 1.083l-1.838 2.33-1.922 2.439zm-4.169 5.286l-.06.077-1.909 2.42-4.731-6.277a5.075 5.075 0 0 0 1.255-.665c.269-.196.51-.415.724-.653.213.238.455.458.723.653.88.642 1.998.996 3.146.996 1.521 0 2.904-.604 3.813-1.582.179.191.375.369.588.53l-3.549 4.5zM13.013 33.548c.91.978 2.291 1.582 3.812 1.582 1.111 0 2.2-.333 3.065-.937.288-.2.547-.428.774-.677.228.25.487.477.774.677.865.605 1.954.937 3.065.937 1.15 0 2.267-.354 3.147-.996.269-.196.51-.415.723-.652.213.237.455.457.724.652.88.642 1.997.996 3.146.996 1.52 0 2.903-.604 3.813-1.582.384.413.852.758 1.38 1.02l-3.16 4.008c-1.068-.424-1.873-1.243-2.15-2.234-.409 1.46-1.96 2.546-3.813 2.546-1.955 0-3.576-1.211-3.87-2.795-.293 1.584-1.914 2.795-3.87 2.795-1.895 0-3.475-1.136-3.84-2.647-.301 1.254-1.442 2.25-2.905 2.552l-2.954-3.919a4.958 4.958 0 0 0 2.139-1.326zm-4.084-4.646c.91.978 2.292 1.582 3.812 1.582 1.111 0 2.2-.333 3.065-.937.288-.2.547-.428.774-.677.228.249.487.476.774.677.865.604 1.954.937 3.065.937 1.15 0 2.268-.354 3.147-.996.269-.196.51-.415.724-.653.213.238.454.458.723.653.88.642 1.997.996 3.146.996 1.521 0 2.903-.604 3.813-1.582.91.978 2.292 1.582 3.812 1.582 1.112 0 2.2-.333 3.065-.937.288-.2.547-.428.775-.677.227.249.486.476.774.677.214.15.444.283.683.399l-3.01 3.817c-1-.438-1.749-1.229-2.014-2.178-.408 1.46-1.96 2.547-3.813 2.547-1.955 0-3.576-1.211-3.87-2.795-.293 1.584-1.914 2.795-3.87 2.795-1.894 0-3.475-1.137-3.84-2.647-.363 1.51-1.943 2.647-3.838 2.647-1.852 0-3.404-1.087-3.812-2.547-.33 1.18-1.407 2.116-2.785 2.432L7.247 30.06a4.872 4.872 0 0 0 1.682-1.16zm6.5-7.594a.475.475 0 0 0-.57-.353c-3.75.883-9.23 4.784-10.288 5.556l-1.143-1.515c.386-.36.833-.747 1.334-1.148 2.873-2.306 7.48-5.1 12.007-6.066.496-.106.99-.19 1.481-.249a.474.474 0 0 0-.112-.941c-5.937.712-12.314 4.903-15.283 7.643L1.74 22.757c2.532-2.708 5.745-4.952 9.326-6.51 3.892-1.692 8.084-2.561 12.463-2.587.259.241.56.623.559 1.098-.001.83-.936 1.831-2.63 2.818-2.913 1.695-4.592 4.172-4.49 6.626.083 2.038 1.387 3.88 3.704 5.276a4.437 4.437 0 0 1-.254.008c-1.895 0-3.475-1.137-3.84-2.648-.363 1.51-1.943 2.648-3.838 2.648-1.852 0-3.404-1.087-3.813-2.547-.29 1.04-1.161 1.89-2.307 2.293l-1.48-1.963a58.459 58.459 0 0 1 4.799-3.114 36.61 36.61 0 0 1 1.584-.863c1.24-.634 2.482-1.162 3.552-1.413a.474.474 0 0 0 .354-.57zM10.032 9.946l2.215-.846 1.546 1.087a.474.474 0 0 0 .696-.173l.68-1.334 2.545.118 4.365 3.557c-4.041.19-7.918 1.083-11.547 2.66a30.588 30.588 0 0 0-4.162 2.206l3.662-7.275zm2.645-5.253l3.801 3.098-1.572-.073a.473.473 0 0 0-.445.258l-.57 1.12-1.305-.917a.475.475 0 0 0-.442-.056l-1.479.566 2.012-3.996zm11.418 7.626l-.112-.002c-.015-.047.042-.03.112.002zm-.936-6.995l-.001.05 1.396.03.915 1.485a.473.473 0 0 0 .7.122l1.429-1.144 2.389.24 2.685 3.328-.753.496-.764.503a.671.671 0 0 0 .739 1.122l.215-.142 1.388-.913 1.523.217.11 1.267a.474.474 0 0 0 .727.36l1.17-.746 1.508.918 1.326 3.968a30.926 30.926 0 0 0-2.379-1.22l-.14-.064c-4.044-1.83-8.59-2.822-13.175-2.882l-3.412-2.775-.625-.51 3.03-3.71zm3.116-3.82L29.15 5.07l-1.65-.165a.472.472 0 0 0-.344.102l-1.162.929-.768-1.25a.475.475 0 0 0-.394-.225l-.954-.02 2.396-2.937zm10.8 6.641l.999 2.99-.797-.498a.473.473 0 0 0-.506.002l-.763.486-.075-.863a.475.475 0 0 0-.405-.429l-.836-.119 2.383-1.569zm-7.38 21.075c-1.887-.73-2.555-1.437-2.567-1.45a.306.306 0 0 0-.456.41c.027.03.558.61 2.007 1.277-.17.019-.344.029-.52.029-1.955 0-3.576-1.212-3.87-2.796a3.036 3.036 0 0 1-.676 1.4c-1.086-.672-3.528-2.475-3.178-4.896.015-.099.033-.199.058-.3a.305.305 0 0 0-.066-.269.306.306 0 0 0-.53.128c-.008.03-.014.06-.02.09-.326 1.524.255 3.056 1.683 4.438.57.552 1.164.975 1.604 1.254-.24.2-.51.373-.805.516l-.028-.015c-2.66-1.269-4.11-2.957-4.188-4.882-.055-1.349.585-2.729 1.775-3.936.584-.592 1.3-1.142 2.13-1.626a11.118 11.118 0 0 0 1.75-1.229c.976-.858 1.468-1.734 1.465-2.616a2.37 2.37 0 0 0-.259-1.063c.53.022 1.06.056 1.588.102.339.275.817.771.876 1.422.06.664-.32 1.387-1.127 2.155a8.17 8.17 0 0 1-.402.358c-1.336 1.11-2.054 2.31-2.146 3.574-.02.273-.011.55.027.83.323 2.315 2.756 4.635 6.873 6.573a4.054 4.054 0 0 1-.998.522zm16.571-5.85l-.906 1.148c-3.668-3.527-9.49-6.29-13.386-7.207a.474.474 0 0 0-.218.924c.648.152 1.35.358 2.088.61 3.018 1.032 6.617 2.856 9.432 5.11.53.422 1.03.86 1.495 1.312l-1.066 1.35c-4.648-3.707-8.695-5.563-14.206-6.549a.475.475 0 0 0-.167.934c.643.115 1.262.241 1.864.38 4.085.942 7.31 2.478 10.91 5.193.334.251.671.514 1.013.786l-1.402 1.778c-1.061-.448-1.85-1.29-2.093-2.3-.364 1.51-1.944 2.647-3.84 2.647-1.851 0-3.403-1.087-3.812-2.547-.086.308-.223.6-.404.868-3.916-1.776-6.311-3.899-6.582-5.844-.159-1.141.415-2.264 1.706-3.339 1.403-1.167 2.058-2.356 1.947-3.533-.04-.419-.174-.79-.353-1.11a31.306 31.306 0 0 1 8.502 2.445c3.69 1.668 6.955 4.063 9.478 6.943zM26.28 0c.324.001.625.146.828.398l6.691 8.297 2.74-1.805c.278-.235.619-.324.945-.243.346.085.617.348.746.718l2.997 8.97-.002.007.128.378.004.003.286.856.17.118.67.464.585.43.061.046.082.06a27.845 27.845 0 0 1 4.44 4.223l.35.419-14.655 18.585-5.991 7.599-3.64 4.616-3.491-4.632-5.765-7.647L0 22.68l.368-.412a27.546 27.546 0 0 1 2.9-2.792l.008.012.616-.509c.064-.059.13-.111.198-.163a.671.671 0 0 1 .059-.175l.253-.503.064-.14.51-.998 6.67-13.248c.163-.3.45-.5.787-.548.323-.047.64.053.878.274l5.778 4.708 6.36-7.793c.203-.25.505-.393.826-.393z"></path></svg></g></svg>